# xmcd
#
# Track frame offsets: 
#        150
#        32213
#        54352
#        67193
#        84508
#        112187
#        130937
#        149702
#        163993
#        175701
#        196304
#        213482
#        231399
#        246147
#        264223
#        274529
#        291343
#        315586
#
# Disc length: 4405 seconds
#
# Revision: 0
# Processed by: cddbd v1.5.2PL0 Copyright (c) Steve Scherf et al.
# Submitted via: ExactAudioCopy v0.99pb4
#
DISCID=19113312
DTITLE=Большой Детский Хор - Военно-патриотические песни
DYEAR=2003
DGENRE=Retro
TTITLE0=Хор хороший
TTITLE1=В земле нашей корни
TTITLE2=Новый день
TTITLE3=Дикая собака Динго
TTITLE4=Беловежская пуща
TTITLE5=Сигнальшики-горнисты
TTITLE6=Просьба
TTITLE7=Утро, здравствуй!
TTITLE8=Орлята учатся летать
TTITLE9=Смоленская дорога
TTITLE10=Улица мира
TTITLE11=Орлёнок
TTITLE12=Прошайте, Cкалистые горы
TTITLE13=Разговор со старой фотографией
TTITLE14=Катюша
TTITLE15=Снегири
TTITLE16=Вечер на рейде
TTITLE17=Погоня
EXTD=
EXTT0=
EXTT1=
EXTT2=
EXTT3=
EXTT4=
EXTT5=
EXTT6=
EXTT7=
EXTT8=
EXTT9=
EXTT10=
EXTT11=
EXTT12=
EXTT13=
EXTT14=
EXTT15=
EXTT16=
EXTT17=
PLAYORDER=
